<svg width="512" height="512" viewBox="0 0 512 512" fill="none" xmlns="http://www.w3.org/2000/svg">
<path d="M77.2911 78.1292L117.137 4.99817L157.303 78.1292L230.274 118.135L157.303 158.141L117.137 231.272L77.2911 158.141L4 118.135L77.2911 78.1292Z" fill="black"></path>
<path d="M261.14 331C327.63 331 387.767 336.837 431.229 346.248C452.975 350.957 470.439 356.538 482.418 362.67C488.41 365.737 492.93 368.893 495.927 372.064C498.915 375.226 500.279 378.278 500.279 381.213C500.279 384.148 498.915 387.2 495.927 390.362C492.93 393.534 488.41 396.689 482.418 399.757C470.439 405.889 452.975 411.47 431.229 416.179C387.767 425.589 327.63 431.427 261.14 431.427C194.649 431.427 134.513 425.589 91.0518 416.179C69.3047 411.47 51.8401 405.889 39.8613 399.757C33.8691 396.689 29.3497 393.534 26.3525 390.362C23.3643 387.2 22 384.147 22 381.213C22.0001 378.278 23.3644 375.226 26.3525 372.064C29.3497 368.893 33.8691 365.737 39.8613 362.67C51.8401 356.538 69.3047 350.957 91.0518 346.248C134.513 336.837 194.649 331 261.14 331Z" stroke="black" stroke-width="4"></path>
<path d="M261.14 367.786C327.63 367.786 387.767 373.624 431.229 383.034C452.975 387.743 470.439 393.324 482.418 399.456C488.41 402.524 492.93 405.679 495.927 408.851C498.915 412.013 500.279 415.065 500.279 417.999C500.279 420.934 498.915 423.986 495.927 427.148C492.93 430.32 488.41 433.475 482.418 436.543C470.439 442.675 452.975 448.256 431.229 452.965C387.767 462.375 327.63 468.213 261.14 468.213C194.649 468.213 134.513 462.375 91.0518 452.965C69.3047 448.256 51.8401 442.675 39.8613 436.543C33.8691 433.475 29.3497 430.32 26.3525 427.148C23.3643 423.986 22 420.934 22 417.999C22.0001 415.065 23.3644 412.012 26.3525 408.851C29.3497 405.679 33.8691 402.524 39.8613 399.456C51.8401 393.324 69.3047 387.743 91.0518 383.034C134.513 373.624 194.649 367.786 261.14 367.786Z" stroke="black" stroke-width="4"></path>
<path d="M261.14 404.574C327.63 404.574 387.767 410.412 431.229 419.822C452.975 424.531 470.439 430.112 482.418 436.244C488.41 439.312 492.93 442.467 495.927 445.639C498.915 448.801 500.279 451.853 500.279 454.787C500.279 457.722 498.915 460.774 495.927 463.937C492.93 467.108 488.41 470.264 482.418 473.331C470.439 479.463 452.975 485.044 431.229 489.753C387.767 499.164 327.63 505.001 261.14 505.001C194.649 505.001 134.513 499.163 91.0518 489.753C69.3047 485.044 51.8401 479.463 39.8613 473.331C33.8691 470.263 29.3497 467.108 26.3525 463.937C23.3643 460.774 22 457.722 22 454.787C22.0001 451.853 23.3644 448.801 26.3525 445.639C29.3497 442.467 33.8691 439.312 39.8613 436.244C51.8401 430.112 69.3047 424.531 91.0518 419.822C134.513 410.412 194.649 404.574 261.14 404.574Z" stroke="black" stroke-width="4"></path>
<circle cx="327" cy="317" r="174.5" fill="black" stroke="black"></circle>
<ellipse cx="269.6" cy="279.201" rx="28" ry="56" fill="white"></ellipse>
<ellipse cx="384.399" cy="279.201" rx="28" ry="56" fill="white"></ellipse>
</svg>