<svg xmlns="http://www.w3.org/2000/svg" viewBox="0 0 872.39 147.57"><defs></defs><title>logo_ai-grow</title><g id="レイヤー_2" data-name="レイヤー 2"><g id="レイヤー_1-2" data-name="レイヤー 1"><g id="AiGROW"><path class="cls-1" d="M800.91,10.24,800.76,97a21.26,21.26,0,0,0,21.15,21.23h7.87A21.25,21.25,0,0,0,851,97.07l.16-86.83h21.23l-.16,92.48A38.31,38.31,0,0,1,834,140.86l-12.48,0A38.16,38.16,0,0,1,791,125.47c-.61-.8-1.19-1.63-1.73-2.49-.55.85-1.12,1.68-1.73,2.49a38.17,38.17,0,0,1-30.51,15.25l-12.48,0a38.33,38.33,0,0,1-38.14-38.27l.17-92.19h21.23l-.15,86.61a21.26,21.26,0,0,0,21.15,21.23h7.87a21.25,21.25,0,0,0,21.22-21.15l.16-86.7Z"></path><path class="cls-2" d="M671.67,29.57A37.22,37.22,0,0,0,635.43,0L578.86,6.94c-20.55,1.54-37.11,16.62-37.15,37l-.05,29.67-.06,29.67c0,20.4,16.48,35.53,37,37.15l56.55,7.13a37.2,37.2,0,0,0,36.34-29.44,36.41,36.41,0,0,0,.8-7.57l.07-36.71.06-36.7A36.43,36.43,0,0,0,671.67,29.57Zm-19.38,76.82a21,21,0,0,1-3.58,11.7,21.19,21.19,0,0,1-17.64,9.45l-48.28-7.12a31.63,31.63,0,0,1-8.07-2.46c-6.81-3.15-12-8.76-12.91-16.23l.05-28.07,0-28.07c1-7.47,6.15-13.06,13-16.19A31.66,31.66,0,0,1,583,27L631.26,20a21.26,21.26,0,0,1,21.15,21.23l-.06,32.57Z"></path><path class="cls-1" d="M515.48,52.34v-.42A41.46,41.46,0,0,0,474.1,10.39l-66.78-.11-21.85,0,0,21.6-.07,38.8,0,23.34-.08,46.8h3.67l18.17,0,.09-46.8,29.31.06,36.17.06a20.38,20.38,0,0,1,20.28,20.36l0,26.47,22.42,0,.05-27.35A41.82,41.82,0,0,0,502,83,41.79,41.79,0,0,0,515.48,52.34ZM407.21,71.6,407.28,31l67.36.12a20.4,20.4,0,0,1,19.2,27c-2.73,8.38-11,13.67-19.83,13.66h-.45Z"></path><path class="cls-1" d="M350,74v-.5h0V71.6H290.15V93.21H330v6.54a19.37,19.37,0,0,1-19.31,19.32h-52a19.37,19.37,0,0,1-19.31-19.32V50.68a19.37,19.37,0,0,1,19.31-19.32h52A19.37,19.37,0,0,1,330,50.68v9.75h20V59.12h0V48.47a37.08,37.08,0,0,0-36.93-37.1l-56.56-.1a37.18,37.18,0,0,0-37.14,37l-.1,54.45a37.19,37.19,0,0,0,37,37.15l56.56.1A37.2,37.2,0,0,0,350,103v-4.7h0V74Z"></path><path class="cls-2" d="M151.22,141l.16-55.52h21.33L172.56,141Zm21.34-71.68.15-17.19H151.38l-.16,17.19Z"></path><path class="cls-2" d="M90,3.11H38.21C7.26,3.11,0,23.46,0,49.75v91l21.49,0V101.19h85.26v39.63l21.49,0v-91C128.24,23.46,121,3.11,90,3.11ZM21.49,80.77V40.09A16.29,16.29,0,0,1,37.81,23.82H90.46a16.27,16.27,0,0,1,16.29,16.27V80.77Z"></path></g></g></g></svg>